<svg xmlns="http://www.w3.org/2000/svg" version="1.1" width="512" height="512">
<path d="M0 0 C1.19302734 -0.01546875 1.19302734 -0.01546875 2.41015625 -0.03125 C9.35260326 1.4280588 14.36878714 7.65600902 19.16000366 12.48872375 C19.9721126 13.29982941 20.78422155 14.11093507 21.62093985 14.94661969 C24.33849257 17.66322051 27.04883555 20.38690143 29.75927734 23.1105957 C31.70675073 25.06139195 33.65574506 27.01066605 35.60469055 28.95999146 C39.80012125 33.1577816 43.99193187 37.35915856 48.18134689 41.56295204 C54.24669387 47.64901562 60.31806607 53.72903979 66.39100261 59.80752911 C76.25527026 69.6810488 86.11543089 79.55865891 95.97265625 89.43920898 C96.5622971 90.03024314 97.15193794 90.62127731 97.7594467 91.23022159 C98.64498639 92.11785459 98.64498639 92.11785459 99.54841578 93.02341956 C107.91177886 101.40653611 116.27610048 109.78869467 124.64160156 118.16967773 C125.22991412 118.75908114 125.81822667 119.34848454 126.42436688 119.95574865 C136.24495159 129.79437658 146.06758168 139.63096082 155.89125597 149.4665038 C161.94522433 155.52804878 167.9971094 161.59166035 174.04628195 167.65799143 C178.19405122 171.81735881 182.34353737 175.97500794 186.49435662 180.1313316 C188.88651886 182.52681385 191.27754409 184.92340318 193.66689873 187.3216877 C196.2626212 189.92689567 198.86144768 192.52896873 201.46102905 195.13032532 C202.20793231 195.88150566 202.95483557 196.632686 203.72437227 197.40662938 C207.77645057 201.45435561 211.92326243 205.32677869 216.26812875 209.05933923 C218.21649987 210.74077578 220.07284542 212.49598027 221.90332031 214.3046875 C222.57051086 214.96227051 223.23770142 215.61985352 223.92510986 216.29736328 C224.61497986 216.9829834 225.30484985 217.66860352 226.015625 218.375 C226.74948425 219.10315918 227.48334351 219.83131836 228.23944092 220.58154297 C229.77689124 222.10961685 231.31294718 223.63909486 232.84765625 225.16992188 C235.18824104 227.50073794 237.53928673 229.82066406 239.890625 232.140625 C241.39128245 233.63475663 242.89130461 235.12952667 244.390625 236.625 C245.43757538 237.65343018 245.43757538 237.65343018 246.50567627 238.70263672 C251.07791633 243.29583939 255.25532849 247.80323232 256.46875 254.37890625 C256.40048874 260.24084198 256.02957973 263.95324475 251.9375 268.5 C247.97159535 271.98518893 244.39026889 272.87972988 239.09255743 272.76631141 C230.66535269 271.72491886 224.9477643 265.06719354 219.31970215 259.36322021 C218.3731949 258.41845949 217.42580819 257.47457918 216.47762537 256.5315001 C213.88710603 253.94988859 211.30916436 251.35603322 208.73317337 248.75993586 C205.94845753 245.95789881 203.15214191 243.1674794 200.35723877 240.37561035 C195.52059389 235.54105989 190.69130968 230.69925694 185.86698914 225.85240936 C178.89188395 218.84475541 171.90572107 211.84821132 164.91683561 204.85430387 C153.57733958 193.50605971 142.24679956 182.14891716 130.921875 170.78613281 C119.92266461 159.75018988 108.91924863 148.7184682 97.91015625 137.69238281 C97.23122305 137.01239871 96.55228984 136.33241462 95.85278291 135.63182494 C92.44664865 132.22047042 89.0404316 128.80919857 85.63417339 125.39796782 C57.3891032 97.1114506 29.15855932 68.81047139 0.9375 40.5 C-2.35974626 41.94081145 -4.5300604 43.72174818 -7.06187057 46.26444817 C-7.85214858 47.05321087 -8.64242658 47.84197357 -9.4566524 48.65463817 C-10.31889839 49.52543832 -11.18114439 50.39623848 -12.06951904 51.29342651 C-12.99017505 52.21519593 -13.91083106 53.13696535 -14.85938573 54.08666718 C-17.41615513 56.64673031 -19.96664848 59.2129678 -22.51620579 61.78021073 C-25.26655553 64.54740837 -28.02273087 67.30879212 -30.77828979 70.07080078 C-35.55359153 74.85870546 -40.3254351 79.65003422 -45.0951767 84.44347763 C-51.9981382 91.3803793 -58.90850778 98.3098644 -65.82110468 105.23716308 C-77.04464657 116.48460582 -88.2651822 127.7350415 -99.48242188 138.98876953 C-100.15394032 139.66246822 -100.82545877 140.33616692 -101.51732627 141.03028072 C-111.04390472 150.5880703 -120.56748802 160.14883876 -130.0898644 169.71081461 C-130.76017009 170.38390692 -131.43047577 171.05699923 -132.12109375 171.75048828 C-132.79058063 172.42276222 -133.46006751 173.09503616 -134.14984187 173.78768204 C-145.31630204 185.00022548 -156.49048702 196.20503359 -167.67102551 207.40353882 C-174.56657416 214.31078999 -181.45553396 221.22448571 -188.33615187 228.14661075 C-193.05302687 232.89092131 -197.77711071 237.62797263 -202.50691459 242.3593937 C-205.23505447 245.08894038 -207.95980899 247.82165721 -210.6758461 250.5632515 C-213.62229249 253.53727632 -216.58407277 256.49554799 -219.54754639 259.4526062 C-220.82753104 260.75211427 -220.82753104 260.75211427 -222.13337398 262.07787502 C-227.63006373 267.52835935 -233.06324368 272.54595827 -241.1875 272.9375 C-246.61152377 272.32511022 -249.70678237 271.0022817 -253.375 266.9375 C-255.78099392 263.46217545 -256.26482453 261.5165641 -256.375 257.3125 C-256.41238281 256.39082031 -256.44976562 255.46914063 -256.48828125 254.51953125 C-255.28525683 245.98799112 -248.32989102 240.34403869 -242.51725769 234.57380676 C-241.52820719 233.58129648 -240.53981112 232.5881337 -239.55201131 231.59437865 C-236.84489983 228.87477158 -234.1285452 226.16456644 -231.41053331 223.4558593 C-228.4773053 220.52942732 -225.55273358 217.59436608 -222.62702942 214.66041565 C-216.89780271 208.91785535 -211.16050248 203.18342748 -205.42025825 197.4518824 C-200.75481202 192.79321376 -196.09230516 188.13162225 -191.43187904 183.46793175 C-190.76835537 182.80394837 -190.10483169 182.13996499 -189.42120123 181.45586091 C-188.07324078 180.10694127 -186.72528706 178.75801491 -185.37734 177.4090819 C-172.73993936 164.76312846 -160.09336298 152.12638341 -147.44362734 139.49277034 C-136.59188651 128.65443258 -125.74803536 117.8082533 -114.90991211 106.95629883 C-102.32122149 94.35155048 -89.72767427 81.75168734 -77.12634736 69.15957087 C-75.78241471 67.81659386 -74.43848831 66.47361057 -73.09456825 65.13062096 C-72.43334672 64.46986225 -71.7721252 63.80910355 -71.09086665 63.12832186 C-66.43359637 58.47364088 -61.77981439 53.81548977 -57.12737083 49.15598488 C-51.45682035 43.47701707 -45.78094861 37.80343276 -40.09820696 32.13666324 C-37.19942429 29.24576007 -34.30308316 26.35251909 -31.41320419 23.45271301 C-28.76653726 20.79709222 -26.11301755 18.1485239 -23.45391516 15.50535663 C-22.0406075 14.0969756 -20.63464071 12.6812398 -19.22896832 11.26523811 C-7.75692729 -0.10090312 -7.75692729 -0.10090312 0 0 Z " fill="#E06A4D" transform="translate(256.0625,34.5)"/>
<path d="M0 0 C5.25883131 5.7349395 6.02490378 10.06023209 6.01869202 17.78144836 C6.02006951 19.09819455 6.02144701 20.41494074 6.02286625 21.77158833 C6.01931982 23.22964308 6.01568193 24.68769762 6.01196289 26.14575195 C6.01165645 27.70828086 6.01179023 29.2708099 6.01232815 30.83333874 C6.01255372 35.01408487 6.00676183 39.19480232 5.99971771 43.37554169 C5.99401879 47.29996327 5.99375437 51.22437792 5.99304199 55.14880371 C5.98779665 66.62264377 5.97383548 78.0964785 5.9609375 89.5703125 C5.9403125 115.2071875 5.9196875 140.8440625 5.8984375 167.2578125 C107.5384375 167.2578125 209.1784375 167.2578125 313.8984375 167.2578125 C313.81927584 116.6074006 313.81927584 116.6074006 313.71826172 65.95703125 C313.70922852 56.15429687 313.70922852 56.15429687 313.70755005 51.56323242 C313.70568896 48.36105571 313.69820274 45.15894552 313.68728638 41.95678711 C313.67353093 37.86741992 313.66946211 33.77814894 313.67229295 29.68876076 C313.67170132 28.19097161 313.66775753 26.69317898 313.66000724 25.19540977 C313.57618473 8.20183524 313.57618473 8.20183524 317.08984375 2.234375 C321.15947569 -1.77728497 325.13606139 -3.59978941 330.8984375 -3.7421875 C335.81975359 -3.02999704 339.60051702 -1.53290069 342.8984375 2.2578125 C345.93226871 6.80855932 346.02940787 9.98263758 346.05233765 15.36027527 C346.0567199 16.08814989 346.06110215 16.81602451 346.0656172 17.56595594 C346.07900099 20.0116653 346.08518313 22.45733862 346.09130859 24.90307617 C346.09920993 26.65406456 346.1074789 28.40505133 346.11608887 30.15603638 C346.14230666 35.91260219 346.15761688 41.66917526 346.171875 47.42578125 C346.1772349 49.40769264 346.1826124 51.38960398 346.18800735 53.37151527 C346.20963626 61.61627542 346.22837262 69.8610336 346.23962975 78.10581493 C346.25586649 89.9198854 346.28903754 101.73362684 346.34603059 113.54757327 C346.38474082 121.85512108 346.40426376 130.16258094 346.40955031 138.47021657 C346.41320244 143.43149314 346.42520907 148.39241876 346.45765305 153.35359764 C346.48775244 158.02321823 346.49403884 162.69227588 346.48226929 167.36197281 C346.48204871 169.0727848 346.49034111 170.78362305 346.50792313 172.49434471 C346.65866069 188.00968492 346.65866069 188.00968492 342.55761147 193.82277393 C338.34640963 197.46509064 334.18455694 198.63280328 328.713624 198.63812923 C327.48680615 198.64656918 326.2599883 198.65500912 324.99599415 198.66370481 C323.64288181 198.65791016 322.28977068 198.65182916 320.93666077 198.64549255 C319.49278694 198.6496666 318.0489164 198.65514452 316.60505193 198.66181237 C312.64150607 198.6762764 308.67816798 198.67201931 304.7146107 198.66464555 C300.43844879 198.65991856 296.16233213 198.67241956 291.88618469 198.68266296 C283.51055063 198.69986536 275.13499155 198.70068801 266.75934441 198.69545006 C259.95223563 198.6914099 253.14514902 198.69285009 246.33804131 198.69819832 C245.36949887 198.69894674 244.40095644 198.69969516 243.40306423 198.70046626 C241.43552355 198.70199773 239.46798287 198.70353608 237.5004422 198.70508123 C219.04633745 198.71881143 200.59227509 198.71336488 182.13817131 198.70189602 C165.25267246 198.69196254 148.36728317 198.70490537 131.48180122 198.72883021 C114.14604581 198.7532081 96.81034147 198.76283234 79.47456926 198.75617748 C69.74092354 198.75268242 60.0073621 198.7549363 50.27372932 198.77242851 C41.98791773 198.78713408 33.70224976 198.78780747 25.41644103 198.7703576 C21.18871086 198.76183173 16.96123744 198.75973662 12.73352051 198.77500916 C8.8627572 198.78881915 4.99247151 198.78414106 1.1217361 198.76476992 C-0.27792924 198.76099822 -1.67763251 198.76396558 -3.07726418 198.77438157 C-16.21357484 198.86518389 -16.21357484 198.86518389 -22.1015625 194.2578125 C-27.68811156 186.87395155 -26.66530751 177.96357188 -26.61914062 169.12084961 C-26.62456595 167.37734901 -26.63169091 165.63385299 -26.64038086 163.8903656 C-26.65856701 159.17139652 -26.65156654 154.45277848 -26.63886452 149.73380351 C-26.62871403 144.78831099 -26.63813573 139.84284786 -26.64440918 134.89735413 C-26.65167894 126.59451926 -26.6421148 118.29182689 -26.62304688 109.98901367 C-26.60127227 100.39699325 -26.60833649 90.80531286 -26.6303525 81.21330065 C-26.64851707 72.96848264 -26.65105985 64.72376686 -26.64059782 56.4789353 C-26.63436964 51.55865854 -26.63350884 46.6385415 -26.64674377 41.71827507 C-26.65831729 37.09291384 -26.65024916 32.46799023 -26.62716675 27.84267616 C-26.62188798 26.14759421 -26.62337918 24.45247528 -26.63221741 22.75740814 C-26.64318983 20.43888856 -26.62939084 18.12176096 -26.60949707 15.80332947 C-26.60798897 14.50753936 -26.60648087 13.21174925 -26.60492706 11.87669277 C-25.81914059 6.22737346 -23.66577232 2.52249278 -19.1640625 -1.1171875 C-12.77642322 -4.50654712 -5.82393709 -4.8280222 0 0 Z " fill="#E06A4D" transform="translate(96.1015625,278.7421875)"/>
</svg>